<svg width="28" height="28" viewBox="0 0 28 28" fill="none" xmlns="http://www.w3.org/2000/svg">
<path d="M27.9903 13.9727C27.9903 14.957 27.2611 15.7281 26.4347 15.7281H24.8792L24.9132 24.4836C24.9132 24.6367 24.9035 24.7789 24.8889 24.9266V25.8125C24.8889 27.0211 24.0188 28 22.9444 28H22.1667C22.1132 28 22.0597 27.9508 22.0063 27.9945C21.9382 27.9508 21.8701 28 21.8021 28H19.0556C17.9813 28 17.1111 27.0211 17.1111 25.8125V21C17.1111 20.032 16.416 19.25 15.5556 19.25H12.4444C11.584 19.25 10.8889 20.032 10.8889 21V25.8125C10.8889 27.0211 10.0188 28 8.94444 28H6.22708C6.15417 28 6.08125 27.9945 6.00833 27.9891C5.95 27.9945 5.89167 28 5.83333 28H5.05556C3.98174 28 3.11111 27.0211 3.11111 25.8125V19.6875C3.11111 19.6383 3.11257 19.5836 3.11549 19.5344V15.7281H1.55799C0.681528 15.7281 0 14.957 0 13.9727C0 13.4805 0.146028 13.043 0.486597 12.6602L12.95 0.438375C13.2903 0.0547969 13.6792 0 14.0194 0C14.3597 0 14.7486 0.109594 15.0451 0.383578L27.4556 12.6602C27.8444 13.043 28.0438 13.4805 27.9903 13.9727Z" fill="#00B4D8"/>
</svg>
