<svg width="28" height="28" viewBox="0 0 28 28" fill="none" xmlns="http://www.w3.org/2000/svg">
<g clip-path="url(#clip0_11_32)">
<path d="M26.8133 2.20938C28.0109 3.4054 28.0109 5.34462 26.8133 6.54063L25.1727 8.18673L19.8133 2.82845L21.4594 1.18454C22.657 -0.0116678 24.593 -0.0116678 25.7906 1.18454L26.8133 2.20938ZM9.42812 13.218L18.5773 4.06548L23.9367 9.42267L14.782 18.5719C14.4484 18.9109 14.0383 19.1625 13.5844 19.3156L8.72812 20.9344C8.20859 21.0875 7.73828 20.9672 7.38281 20.568C7.03281 20.2617 6.9125 19.7422 7.06562 19.2719L8.68437 14.4156C8.8375 13.9617 9.08906 13.5516 9.42812 13.218ZM10.5 3.45079C11.468 3.45079 12.25 4.28368 12.25 5.20079C12.25 6.21798 11.468 6.95079 10.5 6.95079H5.25C4.28367 6.95079 3.5 7.78204 3.5 8.70079V22.75C3.5 23.718 4.28367 24.5 5.25 24.5H19.25C20.218 24.5 21 23.718 21 22.75V17.4508C21 16.532 21.782 15.7008 22.75 15.7008C23.718 15.7008 24.5 16.532 24.5 17.4508V22.75C24.5 25.6484 22.1484 28 19.25 28H5.25C2.35047 28 0 25.6484 0 22.75V8.70079C0 5.80235 2.35047 3.45079 5.25 3.45079H10.5Z" fill="#B5179E"/>
</g>
<defs>
<clipPath id="clip0_11_32">
<rect width="28" height="28" fill="white"/>
</clipPath>
</defs>
</svg>
