<svg width="50" height="64" viewBox="0 0 50 64" fill="none" xmlns="http://www.w3.org/2000/svg">
<path d="M48.2142 32C48.2142 34.2113 46.6149 36.0013 44.6428 36.0013H28.5714V54.0013C28.5714 56.2125 26.972 58 24.9999 58C23.0278 58 21.4285 56.2125 21.4285 54.0013V36.0013H5.35707C3.38497 36.0013 1.78564 34.2113 1.78564 32C1.78564 29.7887 3.38497 28.0012 5.35707 28.0012H21.4285V10.0013C21.4285 7.79 23.0278 6 24.9999 6C26.972 6 28.5714 7.79 28.5714 10.0013V28.0012H44.6428C46.6182 28 48.2142 29.7875 48.2142 32Z" fill="#FF4D6D"/>
</svg>
